<?xml version="1.0" encoding="UTF-8" standalone="no"?>
<!-- Created with Inkscape (http://www.inkscape.org/) -->

<svg
   version="1.1"
   id="svg1"
   width="1058.2667"
   height="302.35999"
   viewBox="0 0 1058.2667 302.35999"
   sodipodi:docname="CT TShirt Bred CMYK 260311.eps"
   xmlns:inkscape="http://www.inkscape.org/namespaces/inkscape"
   xmlns:sodipodi="http://sodipodi.sourceforge.net/DTD/sodipodi-0.dtd"
   xmlns="http://www.w3.org/2000/svg"
   xmlns:svg="http://www.w3.org/2000/svg">
  <defs
     id="defs1" />
  <sodipodi:namedview
     id="namedview1"
     pagecolor="#ffffff"
     bordercolor="#000000"
     borderopacity="0.25"
     inkscape:showpageshadow="2"
     inkscape:pageopacity="0.0"
     inkscape:pagecheckerboard="0"
     inkscape:deskcolor="#d1d1d1">
    <inkscape:page
       x="0"
       y="0"
       inkscape:label="1"
       id="page1"
       width="1058.2667"
       height="302.35999"
       margin="0"
       bleed="0" />
  </sodipodi:namedview>
  <g
     id="g1"
     inkscape:groupmode="layer"
     inkscape:label="1">
    <path
       id="path1"
       d="m 397.238,1045.55 c -184.019,0 -306.7067,134.18 -306.7067,338.66 0,205.75 126.5197,337.38 307.9887,337.38 138.019,0 272.21,-80.51 279.878,-260.7 H 500.762 c -8.953,51.11 -44.731,102.23 -103.524,102.23 -75.398,0 -115.008,-72.84 -115.008,-175.08 0,-107.35 39.61,-185.3 117.571,-185.3 60.058,0 94.57,51.12 102.238,98.4 h 178.91 C 670.73,1133.73 540.379,1045.55 397.238,1045.55 Z m 637.712,0 c -194.251,0 -316.938,130.35 -316.938,338.66 0,207.03 122.687,337.38 316.938,337.38 192.97,0 314.37,-130.35 314.37,-337.38 0,-208.31 -121.4,-338.66 -314.37,-338.66 z m 0,157.19 c 79.23,0 122.68,75.4 122.68,181.47 0,104.79 -43.45,178.91 -122.68,178.91 -80.52,0 -125.239,-74.12 -125.239,-178.91 0,-106.07 44.719,-181.47 125.239,-181.47 z m 369.33,-144.41 v 894.57 h 184.02 v -894.57 z m 268.37,0 v 894.57 h 184.02 v -894.57 z m 532.91,-12.78 c -178.92,0 -300.32,129.07 -300.32,330.99 0,204.47 118.85,345.05 300.32,345.05 173.8,0 307.99,-120.13 282.43,-382.11 h -393.61 c 6.39,-85.62 56.23,-139.3 122.68,-139.3 54.95,0 88.18,29.39 100.96,70.29 h 172.52 c -20.44,-139.3 -130.35,-224.92 -284.98,-224.92 z m -108.63,421.72 h 213.42 c -6.39,71.57 -49.84,108.63 -104.79,108.63 -53.68,0 -97.13,-38.34 -108.63,-108.63 z m 745.05,-421.72 c -184.02,0 -306.71,134.18 -306.71,338.66 0,205.75 126.52,337.38 307.99,337.38 138.02,0 272.21,-80.51 279.87,-260.7 H 2945.5 c -8.95,51.11 -44.73,102.23 -103.52,102.23 -75.4,0 -115.01,-72.84 -115.01,-175.08 0,-107.35 39.61,-185.3 117.57,-185.3 60.06,0 94.57,51.12 102.23,98.4 h 178.92 c -10.22,-167.41 -140.58,-255.59 -283.71,-255.59 z m 548.25,2.55 c -121.41,0 -180.2,56.23 -180.2,209.59 v 296.49 h -72.84 v 154.63 h 72.84 v 127.8 h 184.03 v -127.8 h 122.68 v -154.63 h -122.68 v -251.76 c 0,-63.9 24.28,-85.63 63.9,-85.63 21.72,0 39.62,5.12 61.34,14.06 l 21.73,-150.8 c -38.34,-19.17 -89.46,-31.95 -150.8,-31.95 z m 219.81,10.23 v 650.48 h 184.02 v -650.48 z m 0,734.82 v 149.53 h 184.02 v -149.53 z m 457.51,-734.82 -223.65,650.48 h 198.09 l 65.17,-217.25 c 19.17,-62.62 40.9,-140.58 60.07,-222.37 19.17,80.51 40.89,157.19 58.78,217.25 l 66.46,222.37 h 198.08 l -227.48,-650.48 z m 704.15,-12.78 c -178.91,0 -300.32,129.07 -300.32,330.99 0,204.47 118.85,345.05 300.32,345.05 173.8,0 307.99,-120.13 282.43,-382.11 h -393.61 c 6.39,-85.62 56.23,-139.3 122.68,-139.3 54.96,0 88.18,29.39 100.96,70.29 h 172.53 c -20.45,-139.3 -130.35,-224.92 -284.99,-224.92 z m -108.62,421.72 h 213.41 c -6.39,71.57 -49.84,108.63 -104.79,108.63 -53.67,0 -97.12,-38.34 -108.62,-108.63 z m 466.45,-408.94 v 169.97 h 184.03 v -169.97 z m 449.84,-10.23 c -121.4,0 -180.19,56.23 -180.19,209.59 v 296.49 h -72.84 v 154.63 h 72.84 v 127.8 h 184.03 v -127.8 h 122.68 v -154.63 h -122.68 v -251.76 c 0,-63.9 24.28,-85.63 63.89,-85.63 21.73,0 39.62,5.12 61.35,14.06 l 21.72,-150.8 c -38.34,-19.17 -89.46,-31.95 -150.8,-31.95 z m 480.52,-2.55 c -194.25,0 -316.94,130.35 -316.94,338.66 0,207.03 122.69,337.38 316.94,337.38 192.97,0 314.37,-130.35 314.37,-337.38 0,-208.31 -121.4,-338.66 -314.37,-338.66 z m 0,157.19 c 79.23,0 122.68,75.4 122.68,181.47 0,104.79 -43.45,178.91 -122.68,178.91 -80.52,0 -125.24,-74.12 -125.24,-178.91 0,-106.07 44.72,-181.47 125.24,-181.47 z m 655.59,-157.19 c -194.25,0 -316.93,130.35 -316.93,338.66 0,207.03 122.68,337.38 316.93,337.38 192.97,0 314.38,-130.35 314.38,-337.38 0,-208.31 -121.41,-338.66 -314.38,-338.66 z m 0,157.19 c 79.23,0 122.68,75.4 122.68,181.47 0,104.79 -43.45,178.91 -122.68,178.91 -80.51,0 -125.24,-74.12 -125.24,-178.91 0,-106.07 44.73,-181.47 125.24,-181.47 z m 359.11,-144.41 v 894.57 h 184.02 v -894.57 z m 504.79,-12.78 c -154.63,0 -268.37,72.84 -273.48,210.86 l 172.52,10.23 c 7.67,-39.62 40.9,-72.85 102.24,-72.85 52.39,0 81.79,24.28 81.79,53.68 0,100.95 -339.94,38.33 -339.94,269.65 0,135.46 109.91,204.47 253.04,204.47 154.63,0 246.64,-70.29 258.14,-195.53 L 7663.73,1512 c -8.95,35.79 -35.79,63.9 -86.91,63.9 -44.72,0 -71.56,-23 -71.56,-49.84 0,-98.4 341.21,-19.17 341.21,-276.04 0,-129.07 -112.46,-204.47 -267.09,-204.47 z M 1698.48,206.762 c -59.01,0 -102.77,45.238 -102.77,128.34 0,80.636 48.68,130.789 110.64,130.789 27.04,0 48.19,-9.34 61.95,-23.602 h 1.48 v 113.59 h 58.51 V 211.672 h -49.17 l -4.42,31.969 h -1.48 c -15.73,-22.621 -39.83,-36.879 -74.74,-36.879 z m 14.26,52.609 c 34.91,0 57.53,30.488 57.53,79.168 0,52.121 -22.13,75.723 -55.56,75.723 -33.93,0 -57.54,-24.582 -57.54,-78.184 0,-47.699 22.13,-76.707 55.57,-76.707 z M 1869.6,211.672 V 460.98 h 59 V 211.672 Z m 0,282.738 v 56.059 h 59 V 494.41 Z m 206.03,-384.031 c -54.09,0 -94.41,23.109 -105.72,64.422 l 55.07,12.289 c 6.88,-17.211 25.57,-26.551 51.14,-26.551 36.39,0 53.6,19.66 53.6,51.133 v 26.558 h -1.48 c -13.27,-19.179 -35.89,-31.468 -65.89,-31.468 -58.51,0 -103.75,45.238 -103.75,128.34 0,80.636 47.2,130.789 108.18,130.789 31.47,0 56.05,-12.289 69.82,-32.45 h 1.48 l 5.4,27.539 h 46.23 V 222.488 c 0,-77.199 -43.77,-112.109 -114.08,-112.109 z m 0,148.992 c 35.4,0 57.53,30 57.53,79.168 0,53.102 -22.13,75.723 -55.57,75.723 -33.92,0 -57.53,-24.582 -57.53,-78.184 0,-47.699 22.13,-76.707 55.57,-76.707 z m 153.91,-47.699 V 460.98 h 59 V 211.672 Z m 0,282.738 v 56.059 h 59 V 494.41 Z m 179.47,-286.672 c -41.3,0 -62.94,19.672 -62.94,74.742 v 128.829 h -27.04 v 49.671 h 27.04 v 49.168 h 59.5 V 460.98 h 48.19 v -49.671 h -48.19 V 297.23 c 0,-26.55 8.85,-35.402 25.08,-35.402 7.87,0 15.24,1.973 23.11,5.41 l 7.38,-48.187 c -13.28,-6.879 -30.98,-11.313 -52.13,-11.313 z m 149.49,-0.976 c -46.23,0 -77.7,26.547 -78.19,71.297 -0.49,63.429 48.68,72.769 90.48,78.671 30.98,4.43 57.53,6.891 57.53,27.54 0,23.109 -13.77,33.929 -38.35,33.929 -26.56,0 -43.28,-13.277 -46.72,-32.949 l -55.56,4.922 c 5.9,46.219 50.65,75.719 106.21,75.719 65.4,0 93.43,-32.45 93.43,-89.981 V 281.5 c 0,-18.691 3.93,-26.551 15.24,-26.551 2.46,0 4.42,0.492 7.87,1.961 l 0.98,-41.301 c -7.38,-4.429 -20.16,-7.379 -33.44,-7.379 -29.01,0 -43.27,12.301 -45.73,32.95 l -0.49,3.929 h -1.47 c -11.8,-21.629 -38.85,-38.347 -71.79,-38.347 z m 16.71,46.707 c 28.03,0 53.6,19.672 53.6,67.371 v 7.859 c -12.29,-7.859 -34.42,-8.359 -53.1,-12.289 -19.18,-3.93 -36.39,-10.332 -36.39,-31.961 0,-17.699 11.8,-30.98 35.89,-30.98 z m 163.25,-41.797 v 344.207 h 59.01 V 211.672 Z m 217.34,270.937 c 0,56.063 30,81.141 87.53,81.141 10.82,0 20.65,-1.48 29.5,-3.941 l -3.93,-53.098 c -8.36,1.961 -16.23,2.949 -22.13,2.949 -23.11,0 -31.96,-8.851 -31.96,-29.019 V 460.98 h 46.22 v -49.671 h -46.22 V 211.672 h -59.01 v 199.637 h -23.11 v 49.671 h 23.11 z M 3090.54,211.672 V 460.98 h 49.17 l 5.9,-40.332 h 1.47 c 14.75,29.024 50.65,49.18 84.58,45.243 v -60.969 c -42.78,12.289 -82.12,-11.313 -82.12,-54.094 V 211.672 Z m 170.62,0 V 460.98 h 59.01 V 211.672 Z m 0,282.738 v 56.059 h 59.01 V 494.41 Z M 3362.95,211.672 V 555.879 H 3419 v -129.32 h 1.48 c 18.68,26.062 46.71,39.82 79.17,39.82 49.17,0 80.64,-28.508 80.64,-91.949 V 211.672 h -59.01 v 144.566 c 0,39.832 -16.23,55.563 -46.71,55.563 -27.54,0 -52.62,-21.141 -52.62,-56.539 v -143.59 z m 358.46,-4.91 c -67.36,0 -113.09,49.66 -113.09,127.84 0,78.679 44.74,131.289 112.6,131.289 65.4,0 114.08,-46.219 105.23,-142.102 H 3668.8 c 1.96,-41.309 24.58,-67.367 56.54,-67.367 24.59,0 40.33,13.769 46.23,34.418 h 55.56 c -8.36,-52.121 -48.68,-84.078 -105.72,-84.078 z m -51.63,158.816 h 99.33 c -1.48,33.934 -21.64,53.602 -48.19,53.602 -26.55,0 -46.71,-20.16 -51.14,-53.602 z m 266.02,-157.84 c -41.3,0 -62.94,19.672 -62.94,74.742 v 128.829 h -27.04 v 49.671 h 27.04 v 49.168 h 59.5 V 460.98 h 48.19 v -49.671 h -48.19 V 297.23 c 0,-26.55 8.85,-35.402 25.08,-35.402 7.86,0 15.24,1.973 23.11,5.41 l 7.37,-48.187 c -13.27,-6.879 -30.98,-11.313 -52.12,-11.313 z m 319.6,-0.539 c -22.8,0 -42.92,8.5 -66.61,29.063 -15.65,-16.543 -32.63,-24.59 -51.41,-24.59 h -10.28 c -8.94,0 -12.51,4.469 -11.17,13.406 l 40.23,254.801 c 2.68,16.543 -0.45,27.723 -9.39,33.082 -6.26,3.578 -1.79,22.348 6.71,22.348 37.99,0 71.52,20.57 93.87,20.57 10.28,0 13.86,-4.469 12.52,-14.309 l -17.44,-110.41 c 16.1,25.481 38.45,39.781 63.48,39.781 49.62,0 77.78,-54.531 65.26,-131.871 -12.07,-77.332 -57.66,-131.871 -115.77,-131.871 z m -27.27,134.11 -9.39,-59.45 c -2.68,-17.879 2.24,-29.949 12.96,-29.949 17.88,0 34.87,34.418 43.81,90.289 7.15,45.602 4.47,75.102 -7.6,75.102 -13.85,0 -33.52,-36.211 -39.78,-75.992 z M 4457,527.27 c 3.13,21.46 20.56,35.308 43.81,35.308 23.69,0 36.65,-13.848 33.52,-35.308 -3.57,-21.911 -21,-35.321 -44.7,-35.321 -23.24,0 -36.21,13.41 -32.63,35.321 z m 87.17,0 c 3.13,21.46 20.56,35.308 44.25,35.308 23.25,0 36.21,-13.848 33.08,-35.308 -3.57,-21.911 -21.01,-35.321 -44.25,-35.321 -23.69,0 -36.66,13.41 -33.08,35.321 z m -162.72,-188.2 c 12.52,77.34 73.76,131.871 149.31,131.871 74.65,0 118.91,-54.531 106.39,-131.871 -12.07,-77.332 -73.31,-131.871 -148.41,-131.871 -75.55,0 -119.35,54.539 -107.29,131.871 z m 96.11,0.45 c -8.94,-58.559 -2.23,-92.079 17.44,-92.079 19.22,0 37.1,33.52 46.04,92.079 9.39,57.671 2.24,91.191 -16.99,91.191 -19.67,0 -37.1,-33.52 -46.49,-91.191 z m 164.51,-109.969 25.48,160.929 c 2.68,16.54 -0.45,27.719 -9.39,33.079 -6.26,3.582 -1.79,22.351 6.7,22.351 38,0 71.53,20.559 93.88,20.559 10.28,0 14.3,-4.469 12.51,-14.297 l -2.68,-17.883 c 21.01,24.582 42.02,36.652 59.9,36.652 24.14,0 40.68,-22.793 35.32,-56.769 -4.92,-29.953 -26.82,-51.402 -50.96,-51.402 -16.1,0 -26.82,9.378 -25.04,21.011 2.24,13.848 0,23.239 -6.25,23.239 -11.18,0 -20.57,-21.461 -26.38,-57.219 l -19.22,-120.25 c -1.79,-12.063 -8.49,-17.879 -20.56,-17.879 h -58.12 c -12.06,0 -16.98,5.816 -15.19,17.879 z m 265.08,291.91 c 3.57,24.578 24.58,38.891 55.43,38.891 30.84,0 46.49,-14.313 42.91,-38.891 -4.02,-25.039 -24.58,-39.34 -55.43,-39.34 -30.84,0 -46.94,14.301 -42.91,39.34 z m 87.17,-69.289 -30.85,-194.012 c -12.51,-80.461 -60.79,-134.101 -130.08,-144.832 -11.62,-1.789 -15.2,19.672 -7.15,25.481 22.35,16.089 30.39,35.761 39.78,94.32 l 24.59,157.351 c 2.68,16.54 -0.45,27.719 -9.39,33.079 -6.26,3.582 -1.79,22.351 6.71,22.351 37.99,0 71.52,20.559 93.87,20.559 10.28,0 14.3,-4.469 12.52,-14.297 z M 5131.1,246.988 c -16.09,-25.476 -38.44,-39.789 -63.92,-39.789 -49.17,0 -77.33,54.539 -64.82,131.871 12.07,77.34 57.67,131.871 140.81,131.871 24.14,0 45.6,-4.472 92.98,-4.472 h 10.28 c 8.94,0 12.52,-4.469 11.18,-13.41 l -27.72,-176.118 c -2.68,-16.543 2.24,-21.461 10.73,-25.031 5.81,-2.238 2.68,-16.988 -4.91,-22.359 -19.67,-13.41 -44.71,-22.352 -64.82,-22.352 -27.27,0 -43.36,16.992 -39.79,39.789 z m 14.31,89.852 9.83,63.922 c 3.13,17.879 -2.23,29.949 -12.51,29.949 -18.33,0 -36.21,-38.441 -45.15,-94.762 -7.16,-45.597 -4.03,-75.097 8.04,-75.097 13.86,0 33.53,36.199 39.79,75.988 z m 122.03,-107.289 25.48,160.929 c 2.69,16.54 -0.44,27.719 -9.38,33.079 -6.26,3.582 -1.79,22.351 6.7,22.351 38,0 71.52,20.559 93.87,20.559 10.29,0 14.31,-4.469 12.52,-14.297 l -2.68,-17.883 c 21.01,24.582 42.02,36.652 59.9,36.652 24.14,0 40.68,-22.793 35.31,-56.769 -4.91,-29.953 -26.82,-51.402 -50.96,-51.402 -16.09,0 -26.82,9.378 -25.03,21.011 2.24,13.848 0,23.239 -6.26,23.239 -11.17,0 -20.56,-21.461 -26.37,-57.219 l -19.22,-120.25 c -1.79,-12.063 -8.5,-17.879 -20.57,-17.879 h -58.11 c -12.07,0 -16.98,5.816 -15.2,17.879 z m 308,0 39.78,250.328 c 2.68,16.543 -0.44,27.723 -9.38,33.082 -6.26,3.578 -1.79,22.348 6.7,22.348 38,0 71.52,20.57 93.87,20.57 10.29,0 13.86,-4.469 12.52,-14.309 l -18.77,-118.898 c 25.03,32.629 50.51,48.269 78.22,48.269 42.02,0 66.61,-36.652 57.67,-92.082 l -16.09,-101.031 c -2.24,-16.539 2.23,-22.348 10.73,-25.918 6.25,-2.238 2.68,-16.988 -4.92,-22.359 -19.22,-13.41 -44.7,-22.352 -63.48,-22.352 -29.05,0 -43.81,21.012 -37.55,59.903 l 17.88,113.546 c 2.68,16.543 -2.23,25.922 -12.07,25.922 -17.88,0 -38.44,-33.082 -45.15,-76.879 l -16.09,-100.14 c -1.79,-12.063 -8.49,-17.879 -20.56,-17.879 h -58.11 c -12.07,0 -16.99,5.816 -15.2,17.879 z m 405.44,17.437 c -16.09,-25.476 -38.44,-39.789 -63.92,-39.789 -49.17,0 -77.33,54.539 -64.82,131.871 12.07,77.34 57.67,131.871 140.81,131.871 24.14,0 45.6,-4.472 92.98,-4.472 h 10.28 c 8.94,0 12.52,-4.469 11.18,-13.41 l -27.72,-176.118 c -2.68,-16.543 2.24,-21.461 10.73,-25.031 5.81,-2.238 2.68,-16.988 -4.92,-22.359 -19.66,-13.41 -44.7,-22.352 -64.81,-22.352 -27.27,0 -43.36,16.992 -39.79,39.789 z m 14.31,89.852 9.83,63.922 c 3.13,17.879 -2.23,29.949 -12.51,29.949 -18.33,0 -36.21,-38.441 -45.15,-94.762 -7.16,-45.597 -4.03,-75.097 8.04,-75.097 13.86,0 33.53,36.199 39.79,75.988 z m -65.71,190.43 c 3.12,21.46 20.56,35.308 43.8,35.308 23.7,0 36.66,-13.848 33.53,-35.308 -3.58,-21.911 -21.01,-35.321 -44.7,-35.321 -23.25,0 -36.21,13.41 -32.63,35.321 z m 87.16,0 c 3.13,21.46 20.57,35.308 44.26,35.308 23.24,0 36.21,-13.848 33.08,-35.308 -3.58,-21.911 -21.01,-35.321 -44.26,-35.321 -23.69,0 -36.65,13.41 -33.08,35.321 z m 101.92,-297.719 25.48,160.929 c 2.69,16.54 -0.44,27.719 -9.38,33.079 -6.26,3.582 -1.79,22.351 6.7,22.351 38,0 71.52,20.559 93.88,20.559 10.28,0 14.3,-4.469 12.51,-14.297 l -2.68,-17.883 c 21.01,24.582 42.02,36.652 59.9,36.652 24.14,0 40.68,-22.793 35.31,-56.769 -4.91,-29.953 -26.82,-51.402 -50.96,-51.402 -16.09,0 -26.82,9.378 -25.03,21.011 2.24,13.848 0,23.239 -6.26,23.239 -11.17,0 -20.56,-21.461 -26.37,-57.219 l -19.22,-120.25 c -1.79,-12.063 -8.5,-17.879 -20.56,-17.879 h -58.12 c -12.07,0 -16.98,5.816 -15.2,17.879"
       style="fill:#110b09;fill-opacity:1;fill-rule:evenodd;stroke:none"
       transform="matrix(0.13333333,0,0,-0.13333333,0,302.36)" />
  </g>
</svg>
